<svg xmlns="http://www.w3.org/2000/svg" width="512" height="512">
	<circle style="fill:#000;stroke:#fff;stroke-width:32" cx="256" cy="256" r="240"/>
	<path
     d="m 223.46694,48 0,44.902961 c -18.16981,0 -99.90908,23.147469 -99.90908,97.361699 0,66.02117 58.98487,83.99408 99.8659,89.89227 l 0.0432,74.60799 c -29.85011,-8.5205 -35.27473,-31.48769 -39.41962,-50.47265 l -65.54104,0 c 4.05646,74.25015 69.27041,108.78294 104.96066,114.02761 l 0,45.68012 62.30286,0 0,-44.9893 c 49.31726,-2.62234 107.72393,-45.20936 107.72392,-103.57904 0,-66.85152 -58.1787,-85.82752 -107.72392,-90.92849 l 0,-68.39066 c 19.49479,1.38162 34.70722,20.72444 36.35412,40.41266 l 64.89341,0 c 0,-66.31821 -60.33714,-101.204358 -101.89518,-103.622209 l 0,-44.902961 -61.65521,0 z m 0.34541,108.76014 0,56.68999 c -43.91925,-0.69081 -44.77309,-48.82436 0,-56.68999 z m 62.69143,134.06124 c 54.34914,1.38163 60.36824,55.61645 -0.0863,64.28895 l 0.0863,-64.28895 z"
     style="fill:#fff;stroke:#fff"/>
</svg>
