<?xml version="1.0" encoding="UTF-8" standalone="no"?>
<svg
   xmlns:dc="http://purl.org/dc/elements/1.1/"
   xmlns:cc="http://creativecommons.org/ns#"
   xmlns:rdf="http://www.w3.org/1999/02/22-rdf-syntax-ns#"
   xmlns:svg="http://www.w3.org/2000/svg"
   xmlns="http://www.w3.org/2000/svg"
   xmlns:sodipodi="http://sodipodi.sourceforge.net/DTD/sodipodi-0.dtd"
   xmlns:inkscape="http://www.inkscape.org/namespaces/inkscape"
   height="512"
   id="svg3249"
   version="1.0"
   width="512"
   inkscape:version="0.91 r13725"
   sodipodi:docname="if_aiga_cashier_134157.svg">
  <metadata
     id="metadata15">
    <rdf:RDF>
      <cc:Work
         rdf:about="">
        <dc:format>image/svg+xml</dc:format>
        <dc:type
           rdf:resource="http://purl.org/dc/dcmitype/StillImage" />
        <dc:title></dc:title>
      </cc:Work>
    </rdf:RDF>
  </metadata>
  <sodipodi:namedview
     pagecolor="#ffffff"
     bordercolor="#666666"
     borderopacity="1"
     objecttolerance="10"
     gridtolerance="10"
     guidetolerance="10"
     inkscape:pageopacity="0"
     inkscape:pageshadow="2"
     inkscape:window-width="1280"
     inkscape:window-height="691"
     id="namedview13"
     showgrid="false"
     inkscape:zoom="0.5348746"
     inkscape:cx="-92.545056"
     inkscape:cy="220.61246"
     inkscape:window-x="0"
     inkscape:window-y="1"
     inkscape:window-maximized="1"
     inkscape:current-layer="svg3249" />
  <defs
     id="defs3251">
    <marker
       id="ArrowEnd"
       markerHeight="3"
       markerUnits="strokeWidth"
       markerWidth="4"
       orient="auto"
       refX="0"
       refY="5"
       viewBox="0 0 10 10">
      <path
         d="M 0,0 10,5 0,10 0,0 Z"
         id="path3254"
         inkscape:connector-curvature="0" />
    </marker>
    <marker
       id="ArrowStart"
       markerHeight="3"
       markerUnits="strokeWidth"
       markerWidth="4"
       orient="auto"
       refX="10"
       refY="5"
       viewBox="0 0 10 10">
      <path
         d="M 10,0 0,5 10,10 10,0 Z"
         id="path3257"
         inkscape:connector-curvature="0" />
    </marker>
  </defs>
  <path
     inkscape:connector-curvature="0"
     style="fill:none;stroke:#000000;stroke-width:50.71590042"
     id="path3265"
     d="" />
  <path
     d="m 223.46694,48 0,44.902961 c -18.16981,0 -99.90908,23.147469 -99.90908,97.361699 0,66.02117 58.98487,83.99408 99.8659,89.89227 l 0.0432,74.60799 c -29.85011,-8.5205 -35.27473,-31.48769 -39.41962,-50.47265 l -65.54104,0 c 4.05646,74.25015 69.27041,108.78294 104.96066,114.02761 l 0,45.68012 62.30286,0 0,-44.9893 c 49.31726,-2.62234 107.72393,-45.20936 107.72392,-103.57904 0,-66.85152 -58.1787,-85.82752 -107.72392,-90.92849 l 0,-68.39066 c 19.49479,1.38162 34.70722,20.72444 36.35412,40.41266 l 64.89341,0 c 0,-66.31821 -60.33714,-101.204358 -101.89518,-103.622209 l 0,-44.902961 -61.65521,0 z m 0.34541,108.76014 0,56.68999 c -43.91925,-0.69081 -44.77309,-48.82436 0,-56.68999 z m 62.69143,134.06124 c 54.34914,1.38163 60.36824,55.61645 -0.0863,64.28895 l 0.0863,-64.28895 z"
     id="path3267"
     style="fill:#000000;stroke:#ffffff;stroke-opacity:1;stroke-width:16;stroke-miterlimit:4;stroke-dasharray:none"
     inkscape:connector-curvature="0" />
  <path
     d="m 240.22995,362.41604 0.044,-46.527"
     id="path3277"
     style="fill:#ffffff;stroke:none"
     inkscape:connector-curvature="0" />
</svg>
